<?xml version="1.0" encoding="UTF-8" standalone="no"?>
<!DOCTYPE svg PUBLIC "-//W3C//DTD SVG 1.1//EN" "http://www.w3.org/Graphics/SVG/1.1/DTD/svg11.dtd">
<svg width="100%" height="100%" viewBox="0 0 1817 1250" version="1.1" xmlns="http://www.w3.org/2000/svg" xmlns:xlink="http://www.w3.org/1999/xlink" xml:space="preserve" xmlns:serif="http://www.serif.com/" style="fill-rule:evenodd;clip-rule:evenodd;stroke-linejoin:round;stroke-miterlimit:2;">
    <g transform="matrix(1,0,0,1,-1087,-871)">
        <g id="レイヤー5">
            <g transform="matrix(1,0,0,1,90.6374,296.821)">
                <path d="M1045.75,1585.54C1036.02,1586.59 1065.16,1579.1 1071.66,1571.79C1089.71,1551.49 1106.53,1529.73 1124.04,1508.94C1177.6,1445.34 1222.51,1375.62 1270.7,1308.16C1330.42,1224.55 1589.13,901.783 1725.41,903.851C1880.96,906.211 1978.22,1135.53 2063.59,1201.24C2121.04,1245.46 1974.14,1246.01 2003.98,1311.65C2039.71,1390.27 2203.74,1622.28 2190.79,1687.02C2179.95,1741.22 1942.1,1757.98 1900.97,1762.1C1663.18,1785.88 1421.28,1836.43 1181.65,1821.46C1095.55,1816.08 991.458,1817.46 996.588,1709.72C998.741,1664.51 1008.01,1628.86 1033.25,1591" style="fill:rgb(164,142,234);"/>
            </g>
            <g transform="matrix(1,0,0,1,-74.0723,77.6778)">
                <path d="M2350.72,1645.56C2349.57,1645.08 2384.05,1567.61 2400.3,1535.13C2440.25,1455.22 2468.35,1367.72 2503.31,1285.46C2526.15,1231.72 2553.25,1178.94 2574.89,1124.84C2594.5,1075.82 2741.37,823.45 2821.06,794.864C2878.97,774.093 2924.02,1012.92 2938.04,1070.72C2966.93,1189.92 3010.48,1559.69 2938.04,1664.33C2862.3,1773.73 2466.39,1888.2 2396.82,1749.06C2359.6,1674.61 2350.72,1702.11 2350.72,1645.56Z" style="fill:rgb(164,142,234);"/>
            </g>
        </g>
    </g>
</svg>
