<?xml version="1.0" encoding="UTF-8" standalone="no"?>
<!DOCTYPE svg PUBLIC "-//W3C//DTD SVG 1.1//EN" "http://www.w3.org/Graphics/SVG/1.1/DTD/svg11.dtd">
<svg width="100%" height="100%" viewBox="0 0 670 1409" version="1.1" xmlns="http://www.w3.org/2000/svg" xmlns:xlink="http://www.w3.org/1999/xlink" xml:space="preserve" xmlns:serif="http://www.serif.com/" style="fill-rule:evenodd;clip-rule:evenodd;stroke-linejoin:round;stroke-miterlimit:2;">
    <g transform="matrix(1,0,0,1,-1671,-725)">
        <g transform="matrix(4.68769,0,0,4.68769,-3555.55,-3122.84)">
            <path d="M1162.5,901.988C1163.55,900.18 1164.55,898.672 1165.04,897.958C1171.11,889.012 1187.77,876.839 1179.97,862.931C1176.37,856.493 1172.69,838.991 1167.72,827.75C1167.3,826.816 1169.59,818.714 1171.16,821.587C1179.23,836.358 1178.4,853.838 1186.53,861.233C1189.59,864.014 1189.15,835.241 1194.16,839.562C1197.26,842.228 1189.64,868.764 1187.46,873.693C1183.88,881.807 1173.43,891.886 1179.34,891.514C1200.99,890.151 1222.99,869.91 1211.36,885.476C1204.27,894.96 1176.7,895.259 1172.54,900.331C1171.06,902.13 1169.83,903.668 1168.79,904.984L1168.79,904.99C1168.92,905.076 1169.03,905.167 1169.15,905.264C1173.2,902.957 1177.86,900.998 1181.79,904.022C1183.05,904.988 1189.17,905.152 1190.86,910.988C1191.25,912.347 1185.54,916.012 1184.8,916.819C1182.68,919.116 1177.62,920.128 1173.26,919.946C1173.5,928.236 1172.42,937.223 1172.86,940.038C1173.1,941.523 1173.06,942.483 1172.8,943.083C1174.24,957.482 1176.18,962.897 1198.43,985.553C1201.64,988.821 1225.03,994.404 1238.49,1001.88C1242.71,999.521 1248.42,995.752 1255.38,989.713C1260.84,984.968 1256.22,1012.16 1249.94,1013.74C1249.7,1013.8 1249.48,1013.85 1249.26,1013.91C1252.66,1031.68 1243.45,1064.8 1245.66,1063.89C1256.22,1059.57 1242.85,1086.72 1236.5,1115.31C1234.55,1124.11 1232.12,1120.71 1222.21,1120.16C1214.86,1119.75 1229.22,1098.36 1230.05,1092.55C1233.93,1065.33 1231.65,1060.83 1226.12,1046.53C1224.56,1047.17 1222.99,1047.84 1221.41,1048.46C1220.74,1060.67 1219.63,1071.26 1220.14,1070.7C1223,1067.57 1221.84,1085.98 1215.9,1114.5C1214.87,1119.43 1198.38,1118.49 1199.73,1115.26C1208.12,1095.19 1213.07,1075.71 1208,1062.04C1207.13,1059.7 1205.14,1054.86 1203.1,1049.58C1200.32,1048.95 1197.24,1048.14 1194.1,1047.28C1194.39,1054.85 1194.2,1062.67 1193.4,1069.49C1191.31,1087.36 1191.14,1102.45 1192.52,1112.6C1193.35,1118.71 1188.12,1118.87 1183.76,1119.33C1178.9,1119.85 1175.24,1119.65 1176.32,1115.84C1178.52,1107.98 1180.84,1105.54 1181.44,1100.71C1183.95,1080.59 1182.03,1062.64 1172.43,1044.4C1171.94,1043.48 1171.41,1042.5 1170.88,1041.47C1169.98,1041.08 1168.83,1040.5 1167.52,1039.78C1166.75,1050.17 1166.97,1065.27 1166.56,1071.73C1165.74,1084.55 1168.91,1111.87 1167.3,1114.07C1163.76,1118.9 1153.27,1118.17 1154.08,1114.65C1155.1,1110.15 1155.7,1111.83 1157,1105.44C1158.54,1097.84 1156.11,1082.62 1156.11,1077.71C1156.11,1053.17 1140.15,1040.7 1140.16,1016.95C1139.4,1011.81 1138.61,1005.52 1138.58,1002.26C1138.56,1002.17 1138.54,1002.08 1138.52,1001.99C1135.71,987.935 1140.07,972.637 1141.8,957.869C1141.93,953.078 1142.05,948.22 1142.12,945.257C1140.54,944.489 1138.36,944.174 1135.96,943.961C1131.82,943.594 1129.05,941.388 1128.52,935.976C1128.02,930.931 1132.5,927.804 1134.62,923.792C1135.32,922.471 1135.85,921.123 1136.27,919.781C1132.81,917.902 1128.95,912.644 1125.79,911.086C1125.7,911.041 1126.87,910.364 1127.08,910.324C1128.26,910.092 1129.55,909.678 1130.69,909.054C1133.65,907.434 1136.26,906.823 1139.64,907.034C1136.78,901.011 1134.01,893.627 1128.63,894.14C1119.02,895.056 1110.75,891.859 1117.33,887.658C1117.48,887.558 1126.08,893.454 1128.74,888.302C1129.84,886.154 1117.94,852.091 1120.24,847.619C1122.25,843.726 1126.52,843.314 1126.4,845.571C1125.71,859.585 1127.67,869.255 1129.88,876.042C1131.56,881.217 1135.28,888.93 1139.7,890.141C1141.02,890.503 1145.29,881.747 1146.01,880.395C1149.65,873.575 1148.77,868.161 1151.34,868.256C1161.44,868.629 1150.33,878.957 1145.02,893.86C1143.72,897.5 1144.13,900.692 1144.94,903.618C1149.5,901.474 1156.13,900.176 1162.5,901.988Z" style="fill:white;"/>
        </g>
    </g>
</svg>
