<?xml version="1.0" encoding="UTF-8" standalone="no"?>
<!DOCTYPE svg PUBLIC "-//W3C//DTD SVG 1.1//EN" "http://www.w3.org/Graphics/SVG/1.1/DTD/svg11.dtd">
<svg width="100%" height="100%" viewBox="0 0 2291 963" version="1.1" xmlns="http://www.w3.org/2000/svg" xmlns:xlink="http://www.w3.org/1999/xlink" xml:space="preserve" xmlns:serif="http://www.serif.com/" style="fill-rule:evenodd;clip-rule:evenodd;stroke-linejoin:round;stroke-miterlimit:2;">
    <g transform="matrix(1,0,0,1,-158,-109)">
        <g>
            <g transform="matrix(1,0,0,1,-208.898,13.7438)">
                <circle cx="881.874" cy="375.293" r="279.975" style="fill:white;"/>
            </g>
            <g transform="matrix(1.40407,0,0,1.6981,-753.228,-489.627)">
                <path d="M1513.88,384.144C1513.88,398.994 1516.24,426.615 1519.83,430.202C1523.41,433.789 1551.04,436.147 1565.88,436.147C1551.04,436.147 1523.41,438.504 1519.83,442.091C1516.24,445.678 1513.88,473.299 1513.88,488.149C1513.88,473.299 1511.53,445.678 1507.94,442.091C1504.35,438.504 1476.73,436.147 1461.88,436.147C1476.73,436.147 1504.35,433.789 1507.94,430.202C1511.53,426.615 1513.88,398.994 1513.88,384.144Z" style="fill:white;"/>
            </g>
            <g transform="matrix(1.02128,0,0,1.23515,-334.199,179.488)">
                <path d="M1513.88,384.144C1513.88,398.994 1516.24,426.615 1519.83,430.202C1523.41,433.789 1551.04,436.147 1565.88,436.147C1551.04,436.147 1523.41,438.504 1519.83,442.091C1516.24,445.678 1513.88,473.299 1513.88,488.149C1513.88,473.299 1511.53,445.678 1507.94,442.091C1504.35,438.504 1476.73,436.147 1461.88,436.147C1476.73,436.147 1504.35,433.789 1507.94,430.202C1511.53,426.615 1513.88,398.994 1513.88,384.144Z" style="fill:white;"/>
            </g>
            <g transform="matrix(1.40407,0,0,1.6981,249.901,-246.66)">
                <path d="M1513.88,384.144C1513.88,398.994 1516.24,426.615 1519.83,430.202C1523.41,433.789 1551.04,436.147 1565.88,436.147C1551.04,436.147 1523.41,438.504 1519.83,442.091C1516.24,445.678 1513.88,473.299 1513.88,488.149C1513.88,473.299 1511.53,445.678 1507.94,442.091C1504.35,438.504 1476.73,436.147 1461.88,436.147C1476.73,436.147 1504.35,433.789 1507.94,430.202C1511.53,426.615 1513.88,398.994 1513.88,384.144Z" style="fill:white;"/>
            </g>
            <g transform="matrix(0.758473,0,0,0.784552,755.083,-82.8673)">
                <path d="M1513.88,384.144C1513.88,398.994 1516.24,426.615 1519.83,430.202C1523.41,433.789 1551.04,436.147 1565.88,436.147C1551.04,436.147 1523.41,438.504 1519.83,442.091C1516.24,445.678 1513.88,473.299 1513.88,488.149C1513.88,473.299 1511.53,445.678 1507.94,442.091C1504.35,438.504 1476.73,436.147 1461.88,436.147C1476.73,436.147 1504.35,433.789 1507.94,430.202C1511.53,426.615 1513.88,398.994 1513.88,384.144Z" style="fill:white;"/>
            </g>
            <g transform="matrix(1.40407,0,0,1.6981,-1893.99,-160.962)">
                <path d="M1513.88,384.144C1513.88,398.994 1516.24,426.615 1519.83,430.202C1523.41,433.789 1551.04,436.147 1565.88,436.147C1551.04,436.147 1523.41,438.504 1519.83,442.091C1516.24,445.678 1513.88,473.299 1513.88,488.149C1513.88,473.299 1511.53,445.678 1507.94,442.091C1504.35,438.504 1476.73,436.147 1461.88,436.147C1476.73,436.147 1504.35,433.789 1507.94,430.202C1511.53,426.615 1513.88,398.994 1513.88,384.144Z" style="fill:white;"/>
            </g>
            <g transform="matrix(1.0966,0,0,1.32623,-764.993,424.014)">
                <path d="M1513.88,384.144C1513.88,398.994 1516.24,426.615 1519.83,430.202C1523.41,433.789 1551.04,436.147 1565.88,436.147C1551.04,436.147 1523.41,438.504 1519.83,442.091C1516.24,445.678 1513.88,473.299 1513.88,488.149C1513.88,473.299 1511.53,445.678 1507.94,442.091C1504.35,438.504 1476.73,436.147 1461.88,436.147C1476.73,436.147 1504.35,433.789 1507.94,430.202C1511.53,426.615 1513.88,398.994 1513.88,384.144Z" style="fill:white;"/>
            </g>
        </g>
    </g>
</svg>
