<?xml version="1.0" encoding="UTF-8" standalone="no"?>
<!DOCTYPE svg PUBLIC "-//W3C//DTD SVG 1.1//EN" "http://www.w3.org/Graphics/SVG/1.1/DTD/svg11.dtd">
<svg width="100%" height="100%" viewBox="0 0 3019 923" version="1.1" xmlns="http://www.w3.org/2000/svg" xmlns:xlink="http://www.w3.org/1999/xlink" xml:space="preserve" xmlns:serif="http://www.serif.com/" style="fill-rule:evenodd;clip-rule:evenodd;stroke-linejoin:round;stroke-miterlimit:2;">
    <g transform="matrix(1,0,0,1,218,-1500)">
        <g id="レイヤー2">
            <g transform="matrix(1,0,0,1,-107.515,92.5353)">
                <path d="M-44.595,1546.2C-33.678,1548.2 128.285,1494.04 154.188,1488.86C324.48,1454.8 497.429,1426.18 670.977,1413.79C1100.65,1383.1 1524.16,1494.32 1954.22,1478.39C2108.52,1472.67 2262.65,1468.27 2416.88,1460.93C2484.74,1457.7 2553.5,1461.84 2621.16,1455.69C2667.9,1451.44 2809.19,1430.38 2835.9,1474.89C2879.37,1547.35 2862.65,1791.09 2867.33,1879.94C2872.68,1981.56 2879.99,2086.38 2865.58,2187.22C2859.8,2227.66 2730.6,2234.22 2699.72,2237.86C2531.47,2257.65 2362.45,2270.51 2193.41,2285C1965.3,2304.55 1736.19,2300.71 1507.27,2300.71C1416.5,2300.71 1325.68,2310.82 1234.9,2307.69C1046.17,2301.18 860.88,2263.73 670.977,2272.78C564.149,2277.86 45.361,2354.54 -20.403,2321.66C-44.595,2309.56 -49.971,2266.94 -58.813,2244.84C-127.63,2072.8 -120.587,1870.4 -76.272,1693.13C-66.204,1652.86 -47.494,1532.51 0.548,1532.51" style="fill:rgb(49,49,89);"/>
            </g>
            <g transform="matrix(1,0,0,1,-8.00075,18.9564)">
                <path d="M-97.071,1618.5C-46.383,1604.62 34.378,1624.41 89.589,1619.81C374.109,1596.1 656.678,1608.97 938.1,1658.22C1109.8,1688.26 1281.49,1727.99 1454.89,1747.26C1653.01,1769.27 1852.8,1775.19 2051.99,1775.19C2228.71,1775.19 2404.52,1767.5 2581,1759.48C2588.21,1759.15 2769.3,1753.98 2773.05,1757.73C2791.07,1775.75 2812.52,2021.63 2807.97,2058.03C2793.45,2174.19 2783.34,2188.25 2668.29,2204.68C2611.31,2212.83 2554.72,2218.1 2497.2,2220.4C2396.61,2224.42 2297.17,2251.44 2196.9,2260.55C1953.31,2282.7 1711.24,2279.8 1467.11,2285C1165.67,2291.41 866.064,2304.95 564.476,2297.22C478.791,2295.02 391.512,2294.92 306.082,2302.45C240.349,2308.26 106.854,2349.13 45.942,2330.39C-47.077,2301.77 -90.079,1886.76 -81.509,1783.92C-79.924,1764.89 -120.331,1618.5 -97.071,1618.5Z" style="fill:rgb(28,35,68);"/>
            </g>
        </g>
    </g>
</svg>
