<?xml version="1.0" encoding="UTF-8" standalone="no"?>
<!DOCTYPE svg PUBLIC "-//W3C//DTD SVG 1.1//EN" "http://www.w3.org/Graphics/SVG/1.1/DTD/svg11.dtd">
<svg width="100%" height="100%" viewBox="0 0 3072 831" version="1.1" xmlns="http://www.w3.org/2000/svg" xmlns:xlink="http://www.w3.org/1999/xlink" xml:space="preserve" xmlns:serif="http://www.serif.com/" style="fill-rule:evenodd;clip-rule:evenodd;stroke-linejoin:round;stroke-miterlimit:2;">
    <g transform="matrix(1,0,0,1,133,-1372)">
        <g id="レイヤー4">
            <g transform="matrix(1.48333,0,0,1.48333,-1804.12,717.167)">
                <path d="M1289.8,461.859C1318.78,525.773 1374.82,556.805 1375.41,557.242C1375.41,557.242 1357.64,552.548 1346.55,543.945C1352.75,552.953 1361.09,563.419 1369.86,569.656C1369.86,569.656 1358,566.774 1345.49,561.658C1351.21,568.153 1366.66,584.379 1380,586.489C1380,586.489 1370.22,586.888 1359.92,586.484C1369.14,593.011 1385.12,600.056 1414.94,605.592C1414.94,605.592 1392.68,616.031 1373.93,615.57C1379.76,619.573 1387.06,624.034 1394.77,627.41C1394.77,627.41 1386.1,626.719 1375.7,625.112C1386.97,636.037 1412.49,648.362 1411.4,648.329C1397.46,647.899 1385.85,651.086 1376.5,649.566C1379.73,654.01 1384.99,658.394 1393.53,660.604C1393.53,660.604 1389.66,660.469 1384.25,659.941C1384.59,660.434 1384.86,660.928 1385.03,661.422C1401.65,678.215 1421.61,694.82 1452.59,704.057C1452.59,704.057 1413.92,701.041 1388.65,695.203C1394.17,703.029 1402.81,712.908 1416.03,717.973C1416.03,717.973 1401.57,714.617 1385.69,709.831C1391.48,718.427 1398.89,728.018 1407.52,736.132C1420.25,748.096 1398.07,734.131 1377.67,720.611C1380.77,730.809 1384.19,740.896 1387.12,746.873C1387.12,746.873 1364.96,734.659 1344.81,718.618C1348,731.141 1347.37,727.845 1354.88,749.058C1345.51,741.071 1332.96,731.69 1323.14,726.05C1323.62,733.596 1325.03,741.533 1328.52,745.983C1328.52,745.983 1319.06,737.499 1310.89,728.4C1310.36,744.631 1305.05,896.463 1318.35,922.938L1282.91,921.418L1256.04,921.643C1273.15,850.357 1268.98,744.599 1268.46,728.368C1260.28,737.467 1250.82,745.951 1250.82,745.951C1254.31,741.501 1255.72,733.564 1256.2,726.018C1246.38,731.657 1233.84,741.039 1224.46,749.025C1231.98,727.813 1231.34,731.109 1234.53,718.585C1214.39,734.627 1192.22,746.84 1192.22,746.84C1195.15,740.864 1198.57,730.777 1201.68,720.579C1181.27,734.098 1159.09,748.064 1171.82,736.1C1180.46,727.985 1187.87,718.395 1193.65,709.799C1177.78,714.585 1163.31,717.941 1163.31,717.941C1176.53,712.876 1185.17,702.996 1190.69,695.171C1165.42,701.009 1126.76,704.025 1126.76,704.025C1157.73,694.788 1177.7,678.183 1194.31,661.39C1194.49,660.895 1194.75,660.401 1195.09,659.909C1189.68,660.437 1185.82,660.572 1185.82,660.572C1194.36,658.362 1199.61,653.978 1202.84,649.533C1193.5,651.054 1181.88,647.867 1167.94,648.296C1166.86,648.33 1192.37,636.005 1203.64,625.08C1193.24,626.687 1184.57,627.378 1184.57,627.378C1192.29,624.002 1199.59,619.541 1205.41,615.538C1186.66,615.998 1164.4,605.56 1164.4,605.56C1194.23,600.024 1210.2,592.979 1219.42,586.452C1209.13,586.856 1199.34,586.457 1199.34,586.457C1212.68,584.347 1228.13,568.121 1233.85,561.626C1221.35,566.742 1209.48,569.624 1209.48,569.624C1218.25,563.387 1226.59,552.921 1232.8,543.913C1221.71,552.516 1203.93,557.21 1203.93,557.21C1204.52,556.773 1260.56,525.741 1289.54,461.825L1289.55,461.299L1289.66,461.554L1289.79,461.267L1289.8,461.859Z" style="fill:rgb(0,8,45);"/>
            </g>
            <g transform="matrix(1.48333,0,0,1.48333,583.735,688.46)">
                <path d="M1289.8,461.859C1318.78,525.773 1374.82,556.805 1375.41,557.242C1375.41,557.242 1357.64,552.548 1346.55,543.945C1352.75,552.953 1361.09,563.419 1369.86,569.656C1369.86,569.656 1358,566.774 1345.49,561.658C1351.21,568.153 1366.66,584.379 1380,586.489C1380,586.489 1370.22,586.888 1359.92,586.484C1369.14,593.011 1385.12,600.056 1414.94,605.592C1414.94,605.592 1392.68,616.031 1373.93,615.57C1379.76,619.573 1387.06,624.034 1394.77,627.41C1394.77,627.41 1386.1,626.719 1375.7,625.112C1386.97,636.037 1412.49,648.362 1411.4,648.329C1397.46,647.899 1385.85,651.086 1376.5,649.566C1379.73,654.01 1384.99,658.394 1393.53,660.604C1393.53,660.604 1389.66,660.469 1384.25,659.941C1384.59,660.434 1384.86,660.928 1385.03,661.422C1401.65,678.215 1421.61,694.82 1452.59,704.057C1452.59,704.057 1413.92,701.041 1388.65,695.203C1394.17,703.029 1402.81,712.908 1416.03,717.973C1416.03,717.973 1401.57,714.617 1385.69,709.831C1391.48,718.427 1398.89,728.018 1407.52,736.132C1420.25,748.096 1398.07,734.131 1377.67,720.611C1380.77,730.809 1384.19,740.896 1387.12,746.873C1387.12,746.873 1364.96,734.659 1344.81,718.618C1348,731.141 1347.37,727.845 1354.88,749.058C1345.51,741.071 1332.96,731.69 1323.14,726.05C1323.62,733.596 1325.03,741.533 1328.52,745.983C1328.52,745.983 1319.06,737.499 1310.89,728.4C1310.36,744.631 1305.05,896.463 1318.35,922.938L1282.91,921.418L1256.04,921.643C1273.15,850.357 1268.98,744.599 1268.46,728.368C1260.28,737.467 1250.82,745.951 1250.82,745.951C1254.31,741.501 1255.72,733.564 1256.2,726.018C1246.38,731.657 1233.84,741.039 1224.46,749.025C1231.98,727.813 1231.34,731.109 1234.53,718.585C1214.39,734.627 1192.22,746.84 1192.22,746.84C1195.15,740.864 1198.57,730.777 1201.68,720.579C1181.27,734.098 1159.09,748.064 1171.82,736.1C1180.46,727.985 1187.87,718.395 1193.65,709.799C1177.78,714.585 1163.31,717.941 1163.31,717.941C1176.53,712.876 1185.17,702.996 1190.69,695.171C1165.42,701.009 1126.76,704.025 1126.76,704.025C1157.73,694.788 1177.7,678.183 1194.31,661.39C1194.49,660.895 1194.75,660.401 1195.09,659.909C1189.68,660.437 1185.82,660.572 1185.82,660.572C1194.36,658.362 1199.61,653.978 1202.84,649.533C1193.5,651.054 1181.88,647.867 1167.94,648.296C1166.86,648.33 1192.37,636.005 1203.64,625.08C1193.24,626.687 1184.57,627.378 1184.57,627.378C1192.29,624.002 1199.59,619.541 1205.41,615.538C1186.66,615.998 1164.4,605.56 1164.4,605.56C1194.23,600.024 1210.2,592.979 1219.42,586.452C1209.13,586.856 1199.34,586.457 1199.34,586.457C1212.68,584.347 1228.13,568.121 1233.85,561.626C1221.35,566.742 1209.48,569.624 1209.48,569.624C1218.25,563.387 1226.59,552.921 1232.8,543.913C1221.71,552.516 1203.93,557.21 1203.93,557.21C1204.52,556.773 1260.56,525.741 1289.54,461.825L1289.55,461.299L1289.66,461.554L1289.79,461.267L1289.8,461.859Z" style="fill:rgb(0,8,45);"/>
            </g>
            <g transform="matrix(0.853587,0,0,0.957336,-401.257,1218.05)">
                <path d="M1289.8,461.859C1318.78,525.773 1374.82,556.805 1375.41,557.242C1375.41,557.242 1357.64,552.548 1346.55,543.945C1352.75,552.953 1361.09,563.419 1369.86,569.656C1369.86,569.656 1358,566.774 1345.49,561.658C1351.21,568.153 1366.66,584.379 1380,586.489C1380,586.489 1370.22,586.888 1359.92,586.484C1369.14,593.011 1385.12,600.056 1414.94,605.592C1414.94,605.592 1392.68,616.031 1373.93,615.57C1379.76,619.573 1387.06,624.034 1394.77,627.41C1394.77,627.41 1386.1,626.719 1375.7,625.112C1386.97,636.037 1412.49,648.362 1411.4,648.329C1397.46,647.899 1385.85,651.086 1376.5,649.566C1379.73,654.01 1384.99,658.394 1393.53,660.604C1393.53,660.604 1389.66,660.469 1384.25,659.941C1384.59,660.434 1384.86,660.928 1385.03,661.422C1401.65,678.215 1421.61,694.82 1452.59,704.057C1452.59,704.057 1413.92,701.041 1388.65,695.203C1394.17,703.029 1402.81,712.908 1416.03,717.973C1416.03,717.973 1401.57,714.617 1385.69,709.831C1391.48,718.427 1398.89,728.018 1407.52,736.132C1420.25,748.096 1398.07,734.131 1377.67,720.611C1380.77,730.809 1384.19,740.896 1387.12,746.873C1387.12,746.873 1364.96,734.659 1344.81,718.618C1348,731.141 1347.37,727.845 1354.88,749.058C1345.51,741.071 1332.96,731.69 1323.14,726.05C1323.62,733.596 1325.03,741.533 1328.52,745.983C1328.52,745.983 1319.06,737.499 1310.89,728.4C1310.36,744.631 1305.05,896.463 1318.35,922.938L1282.91,921.418L1256.04,921.643C1273.15,850.357 1268.98,744.599 1268.46,728.368C1260.28,737.467 1250.82,745.951 1250.82,745.951C1254.31,741.501 1255.72,733.564 1256.2,726.018C1246.38,731.657 1233.84,741.039 1224.46,749.025C1231.98,727.813 1231.34,731.109 1234.53,718.585C1214.39,734.627 1192.22,746.84 1192.22,746.84C1195.15,740.864 1198.57,730.777 1201.68,720.579C1181.27,734.098 1159.09,748.064 1171.82,736.1C1180.46,727.985 1187.87,718.395 1193.65,709.799C1177.78,714.585 1163.31,717.941 1163.31,717.941C1176.53,712.876 1185.17,702.996 1190.69,695.171C1165.42,701.009 1126.76,704.025 1126.76,704.025C1157.73,694.788 1177.7,678.183 1194.31,661.39C1194.49,660.895 1194.75,660.401 1195.09,659.909C1189.68,660.437 1185.82,660.572 1185.82,660.572C1194.36,658.362 1199.61,653.978 1202.84,649.533C1193.5,651.054 1181.88,647.867 1167.94,648.296C1166.86,648.33 1192.37,636.005 1203.64,625.08C1193.24,626.687 1184.57,627.378 1184.57,627.378C1192.29,624.002 1199.59,619.541 1205.41,615.538C1186.66,615.998 1164.4,605.56 1164.4,605.56C1194.23,600.024 1210.2,592.979 1219.42,586.452C1209.13,586.856 1199.34,586.457 1199.34,586.457C1212.68,584.347 1228.13,568.121 1233.85,561.626C1221.35,566.742 1209.48,569.624 1209.48,569.624C1218.25,563.387 1226.59,552.921 1232.8,543.913C1221.71,552.516 1203.93,557.21 1203.93,557.21C1204.52,556.773 1260.56,525.741 1289.54,461.825L1289.55,461.299L1289.66,461.554L1289.79,461.267L1289.8,461.859Z" style="fill:rgb(0,8,45);"/>
            </g>
            <g transform="matrix(1.48333,0,0,1.48333,-1573.88,759.764)">
                <path d="M1289.8,461.859C1318.78,525.773 1374.82,556.805 1375.41,557.242C1375.41,557.242 1357.64,552.548 1346.55,543.945C1352.75,552.953 1361.09,563.419 1369.86,569.656C1369.86,569.656 1358,566.774 1345.49,561.658C1351.21,568.153 1366.66,584.379 1380,586.489C1380,586.489 1370.22,586.888 1359.92,586.484C1369.14,593.011 1385.12,600.056 1414.94,605.592C1414.94,605.592 1392.68,616.031 1373.93,615.57C1379.76,619.573 1387.06,624.034 1394.77,627.41C1394.77,627.41 1386.1,626.719 1375.7,625.112C1386.97,636.037 1412.49,648.362 1411.4,648.329C1397.46,647.899 1385.85,651.086 1376.5,649.566C1379.73,654.01 1384.99,658.394 1393.53,660.604C1393.53,660.604 1389.66,660.469 1384.25,659.941C1384.59,660.434 1384.86,660.928 1385.03,661.422C1401.65,678.215 1421.61,694.82 1452.59,704.057C1452.59,704.057 1413.92,701.041 1388.65,695.203C1394.17,703.029 1402.81,712.908 1416.03,717.973C1416.03,717.973 1401.57,714.617 1385.69,709.831C1391.48,718.427 1398.89,728.018 1407.52,736.132C1420.25,748.096 1398.07,734.131 1377.67,720.611C1380.77,730.809 1384.19,740.896 1387.12,746.873C1387.12,746.873 1364.96,734.659 1344.81,718.618C1348,731.141 1347.37,727.845 1354.88,749.058C1345.51,741.071 1332.96,731.69 1323.14,726.05C1323.62,733.596 1325.03,741.533 1328.52,745.983C1328.52,745.983 1319.06,737.499 1310.89,728.4C1310.36,744.631 1305.05,896.463 1318.35,922.938L1282.91,921.418L1256.04,921.643C1273.15,850.357 1268.98,744.599 1268.46,728.368C1260.28,737.467 1250.82,745.951 1250.82,745.951C1254.31,741.501 1255.72,733.564 1256.2,726.018C1246.38,731.657 1233.84,741.039 1224.46,749.025C1231.98,727.813 1231.34,731.109 1234.53,718.585C1214.39,734.627 1192.22,746.84 1192.22,746.84C1195.15,740.864 1198.57,730.777 1201.68,720.579C1181.27,734.098 1159.09,748.064 1171.82,736.1C1180.46,727.985 1187.87,718.395 1193.65,709.799C1177.78,714.585 1163.31,717.941 1163.31,717.941C1176.53,712.876 1185.17,702.996 1190.69,695.171C1165.42,701.009 1126.76,704.025 1126.76,704.025C1157.73,694.788 1177.7,678.183 1194.31,661.39C1194.49,660.895 1194.75,660.401 1195.09,659.909C1189.68,660.437 1185.82,660.572 1185.82,660.572C1194.36,658.362 1199.61,653.978 1202.84,649.533C1193.5,651.054 1181.88,647.867 1167.94,648.296C1166.86,648.33 1192.37,636.005 1203.64,625.08C1193.24,626.687 1184.57,627.378 1184.57,627.378C1192.29,624.002 1199.59,619.541 1205.41,615.538C1186.66,615.998 1164.4,605.56 1164.4,605.56C1194.23,600.024 1210.2,592.979 1219.42,586.452C1209.13,586.856 1199.34,586.457 1199.34,586.457C1212.68,584.347 1228.13,568.121 1233.85,561.626C1221.35,566.742 1209.48,569.624 1209.48,569.624C1218.25,563.387 1226.59,552.921 1232.8,543.913C1221.71,552.516 1203.93,557.21 1203.93,557.21C1204.52,556.773 1260.56,525.741 1289.54,461.825L1289.55,461.299L1289.66,461.554L1289.79,461.267L1289.8,461.859Z" style="fill:rgb(0,8,45);"/>
            </g>
            <g transform="matrix(1.48333,0,0,1.48333,783.373,833.683)">
                <path d="M1289.8,461.859C1318.78,525.773 1374.82,556.805 1375.41,557.242C1375.41,557.242 1357.64,552.548 1346.55,543.945C1352.75,552.953 1361.09,563.419 1369.86,569.656C1369.86,569.656 1358,566.774 1345.49,561.658C1351.21,568.153 1366.66,584.379 1380,586.489C1380,586.489 1370.22,586.888 1359.92,586.484C1369.14,593.011 1385.12,600.056 1414.94,605.592C1414.94,605.592 1392.68,616.031 1373.93,615.57C1379.76,619.573 1387.06,624.034 1394.77,627.41C1394.77,627.41 1386.1,626.719 1375.7,625.112C1386.97,636.037 1412.49,648.362 1411.4,648.329C1397.46,647.899 1385.85,651.086 1376.5,649.566C1379.73,654.01 1384.99,658.394 1393.53,660.604C1393.53,660.604 1389.66,660.469 1384.25,659.941C1384.59,660.434 1384.86,660.928 1385.03,661.422C1401.65,678.215 1421.61,694.82 1452.59,704.057C1452.59,704.057 1413.92,701.041 1388.65,695.203C1394.17,703.029 1402.81,712.908 1416.03,717.973C1416.03,717.973 1401.57,714.617 1385.69,709.831C1391.48,718.427 1398.89,728.018 1407.52,736.132C1420.25,748.096 1398.07,734.131 1377.67,720.611C1380.77,730.809 1384.19,740.896 1387.12,746.873C1387.12,746.873 1364.96,734.659 1344.81,718.618C1348,731.141 1347.37,727.845 1354.88,749.058C1345.51,741.071 1332.96,731.69 1323.14,726.05C1323.62,733.596 1325.03,741.533 1328.52,745.983C1328.52,745.983 1319.06,737.499 1310.89,728.4C1310.36,744.631 1305.05,896.463 1318.35,922.938L1282.91,921.418L1256.04,921.643C1273.15,850.357 1268.98,744.599 1268.46,728.368C1260.28,737.467 1250.82,745.951 1250.82,745.951C1254.31,741.501 1255.72,733.564 1256.2,726.018C1246.38,731.657 1233.84,741.039 1224.46,749.025C1231.98,727.813 1231.34,731.109 1234.53,718.585C1214.39,734.627 1192.22,746.84 1192.22,746.84C1195.15,740.864 1198.57,730.777 1201.68,720.579C1181.27,734.098 1159.09,748.064 1171.82,736.1C1180.46,727.985 1187.87,718.395 1193.65,709.799C1177.78,714.585 1163.31,717.941 1163.31,717.941C1176.53,712.876 1185.17,702.996 1190.69,695.171C1165.42,701.009 1126.76,704.025 1126.76,704.025C1157.73,694.788 1177.7,678.183 1194.31,661.39C1194.49,660.895 1194.75,660.401 1195.09,659.909C1189.68,660.437 1185.82,660.572 1185.82,660.572C1194.36,658.362 1199.61,653.978 1202.84,649.533C1193.5,651.054 1181.88,647.867 1167.94,648.296C1166.86,648.33 1192.37,636.005 1203.64,625.08C1193.24,626.687 1184.57,627.378 1184.57,627.378C1192.29,624.002 1199.59,619.541 1205.41,615.538C1186.66,615.998 1164.4,605.56 1164.4,605.56C1194.23,600.024 1210.2,592.979 1219.42,586.452C1209.13,586.856 1199.34,586.457 1199.34,586.457C1212.68,584.347 1228.13,568.121 1233.85,561.626C1221.35,566.742 1209.48,569.624 1209.48,569.624C1218.25,563.387 1226.59,552.921 1232.8,543.913C1221.71,552.516 1203.93,557.21 1203.93,557.21C1204.52,556.773 1260.56,525.741 1289.54,461.825L1289.55,461.299L1289.66,461.554L1289.79,461.267L1289.8,461.859Z" style="fill:rgb(0,8,45);"/>
            </g>
            <g transform="matrix(1.32793,0,0,1.44086,-1253.44,850.062)">
                <path d="M1289.8,461.859C1318.78,525.773 1374.82,556.805 1375.41,557.242C1375.41,557.242 1357.64,552.548 1346.55,543.945C1352.75,552.953 1361.09,563.419 1369.86,569.656C1369.86,569.656 1358,566.774 1345.49,561.658C1351.21,568.153 1366.66,584.379 1380,586.489C1380,586.489 1370.22,586.888 1359.92,586.484C1369.14,593.011 1385.12,600.056 1414.94,605.592C1414.94,605.592 1392.68,616.031 1373.93,615.57C1379.76,619.573 1387.06,624.034 1394.77,627.41C1394.77,627.41 1386.1,626.719 1375.7,625.112C1386.97,636.037 1412.49,648.362 1411.4,648.329C1397.46,647.899 1385.85,651.086 1376.5,649.566C1379.73,654.01 1384.99,658.394 1393.53,660.604C1393.53,660.604 1389.66,660.469 1384.25,659.941C1384.59,660.434 1384.86,660.928 1385.03,661.422C1401.65,678.215 1421.61,694.82 1452.59,704.057C1452.59,704.057 1413.92,701.041 1388.65,695.203C1394.17,703.029 1402.81,712.908 1416.03,717.973C1416.03,717.973 1401.57,714.617 1385.69,709.831C1391.48,718.427 1398.89,728.018 1407.52,736.132C1420.25,748.096 1398.07,734.131 1377.67,720.611C1380.77,730.809 1384.19,740.896 1387.12,746.873C1387.12,746.873 1364.96,734.659 1344.81,718.618C1348,731.141 1347.37,727.845 1354.88,749.058C1345.51,741.071 1332.96,731.69 1323.14,726.05C1323.62,733.596 1325.03,741.533 1328.52,745.983C1328.52,745.983 1319.06,737.499 1310.89,728.4C1310.36,744.631 1305.05,896.463 1318.35,922.938L1282.91,921.418L1256.04,921.643C1273.15,850.357 1268.98,744.599 1268.46,728.368C1260.28,737.467 1250.82,745.951 1250.82,745.951C1254.31,741.501 1255.72,733.564 1256.2,726.018C1246.38,731.657 1233.84,741.039 1224.46,749.025C1231.98,727.813 1231.34,731.109 1234.53,718.585C1214.39,734.627 1192.22,746.84 1192.22,746.84C1195.15,740.864 1198.57,730.777 1201.68,720.579C1181.27,734.098 1159.09,748.064 1171.82,736.1C1180.46,727.985 1187.87,718.395 1193.65,709.799C1177.78,714.585 1163.31,717.941 1163.31,717.941C1176.53,712.876 1185.17,702.996 1190.69,695.171C1165.42,701.009 1126.76,704.025 1126.76,704.025C1157.73,694.788 1177.7,678.183 1194.31,661.39C1194.49,660.895 1194.75,660.401 1195.09,659.909C1189.68,660.437 1185.82,660.572 1185.82,660.572C1194.36,658.362 1199.61,653.978 1202.84,649.533C1193.5,651.054 1181.88,647.867 1167.94,648.296C1166.86,648.33 1192.37,636.005 1203.64,625.08C1193.24,626.687 1184.57,627.378 1184.57,627.378C1192.29,624.002 1199.59,619.541 1205.41,615.538C1186.66,615.998 1164.4,605.56 1164.4,605.56C1194.23,600.024 1210.2,592.979 1219.42,586.452C1209.13,586.856 1199.34,586.457 1199.34,586.457C1212.68,584.347 1228.13,568.121 1233.85,561.626C1221.35,566.742 1209.48,569.624 1209.48,569.624C1218.25,563.387 1226.59,552.921 1232.8,543.913C1221.71,552.516 1203.93,557.21 1203.93,557.21C1204.52,556.773 1260.56,525.741 1289.54,461.825L1289.55,461.299L1289.66,461.554L1289.79,461.267L1289.8,461.859Z" style="fill:rgb(0,8,45);"/>
            </g>
            <g transform="matrix(1.291,0,0,1.291,593.471,899.913)">
                <path d="M1289.8,461.859C1318.78,525.773 1374.82,556.805 1375.41,557.242C1375.41,557.242 1357.64,552.548 1346.55,543.945C1352.75,552.953 1361.09,563.419 1369.86,569.656C1369.86,569.656 1358,566.774 1345.49,561.658C1351.21,568.153 1366.66,584.379 1380,586.489C1380,586.489 1370.22,586.888 1359.92,586.484C1369.14,593.011 1385.12,600.056 1414.94,605.592C1414.94,605.592 1392.68,616.031 1373.93,615.57C1379.76,619.573 1387.06,624.034 1394.77,627.41C1394.77,627.41 1386.1,626.719 1375.7,625.112C1386.97,636.037 1412.49,648.362 1411.4,648.329C1397.46,647.899 1385.85,651.086 1376.5,649.566C1379.73,654.01 1384.99,658.394 1393.53,660.604C1393.53,660.604 1389.66,660.469 1384.25,659.941C1384.59,660.434 1384.86,660.928 1385.03,661.422C1401.65,678.215 1421.61,694.82 1452.59,704.057C1452.59,704.057 1413.92,701.041 1388.65,695.203C1394.17,703.029 1402.81,712.908 1416.03,717.973C1416.03,717.973 1401.57,714.617 1385.69,709.831C1391.48,718.427 1398.89,728.018 1407.52,736.132C1420.25,748.096 1398.07,734.131 1377.67,720.611C1380.77,730.809 1384.19,740.896 1387.12,746.873C1387.12,746.873 1364.96,734.659 1344.81,718.618C1348,731.141 1347.37,727.845 1354.88,749.058C1345.51,741.071 1332.96,731.69 1323.14,726.05C1323.62,733.596 1325.03,741.533 1328.52,745.983C1328.52,745.983 1319.06,737.499 1310.89,728.4C1310.36,744.631 1305.05,896.463 1318.35,922.938L1282.91,921.418L1256.04,921.643C1273.15,850.357 1268.98,744.599 1268.46,728.368C1260.28,737.467 1250.82,745.951 1250.82,745.951C1254.31,741.501 1255.72,733.564 1256.2,726.018C1246.38,731.657 1233.84,741.039 1224.46,749.025C1231.98,727.813 1231.34,731.109 1234.53,718.585C1214.39,734.627 1192.22,746.84 1192.22,746.84C1195.15,740.864 1198.57,730.777 1201.68,720.579C1181.27,734.098 1159.09,748.064 1171.82,736.1C1180.46,727.985 1187.87,718.395 1193.65,709.799C1177.78,714.585 1163.31,717.941 1163.31,717.941C1176.53,712.876 1185.17,702.996 1190.69,695.171C1165.42,701.009 1126.76,704.025 1126.76,704.025C1157.73,694.788 1177.7,678.183 1194.31,661.39C1194.49,660.895 1194.75,660.401 1195.09,659.909C1189.68,660.437 1185.82,660.572 1185.82,660.572C1194.36,658.362 1199.61,653.978 1202.84,649.533C1193.5,651.054 1181.88,647.867 1167.94,648.296C1166.86,648.33 1192.37,636.005 1203.64,625.08C1193.24,626.687 1184.57,627.378 1184.57,627.378C1192.29,624.002 1199.59,619.541 1205.41,615.538C1186.66,615.998 1164.4,605.56 1164.4,605.56C1194.23,600.024 1210.2,592.979 1219.42,586.452C1209.13,586.856 1199.34,586.457 1199.34,586.457C1212.68,584.347 1228.13,568.121 1233.85,561.626C1221.35,566.742 1209.48,569.624 1209.48,569.624C1218.25,563.387 1226.59,552.921 1232.8,543.913C1221.71,552.516 1203.93,557.21 1203.93,557.21C1204.52,556.773 1260.56,525.741 1289.54,461.825L1289.55,461.299L1289.66,461.554L1289.79,461.267L1289.8,461.859Z" style="fill:rgb(0,8,45);"/>
            </g>
            <g transform="matrix(1.19288,0,0,1.19288,-1277.55,980.224)">
                <path d="M1289.8,461.859C1318.78,525.773 1374.82,556.805 1375.41,557.242C1375.41,557.242 1357.64,552.548 1346.55,543.945C1352.75,552.953 1361.09,563.419 1369.86,569.656C1369.86,569.656 1358,566.774 1345.49,561.658C1351.21,568.153 1366.66,584.379 1380,586.489C1380,586.489 1370.22,586.888 1359.92,586.484C1369.14,593.011 1385.12,600.056 1414.94,605.592C1414.94,605.592 1392.68,616.031 1373.93,615.57C1379.76,619.573 1387.06,624.034 1394.77,627.41C1394.77,627.41 1386.1,626.719 1375.7,625.112C1386.97,636.037 1412.49,648.362 1411.4,648.329C1397.46,647.899 1385.85,651.086 1376.5,649.566C1379.73,654.01 1384.99,658.394 1393.53,660.604C1393.53,660.604 1389.66,660.469 1384.25,659.941C1384.59,660.434 1384.86,660.928 1385.03,661.422C1401.65,678.215 1421.61,694.82 1452.59,704.057C1452.59,704.057 1413.92,701.041 1388.65,695.203C1394.17,703.029 1402.81,712.908 1416.03,717.973C1416.03,717.973 1401.57,714.617 1385.69,709.831C1391.48,718.427 1398.89,728.018 1407.52,736.132C1420.25,748.096 1398.07,734.131 1377.67,720.611C1380.77,730.809 1384.19,740.896 1387.12,746.873C1387.12,746.873 1364.96,734.659 1344.81,718.618C1348,731.141 1347.37,727.845 1354.88,749.058C1345.51,741.071 1332.96,731.69 1323.14,726.05C1323.62,733.596 1325.03,741.533 1328.52,745.983C1328.52,745.983 1319.06,737.499 1310.89,728.4C1310.36,744.631 1305.05,896.463 1318.35,922.938L1282.91,921.418L1256.04,921.643C1273.15,850.357 1268.98,744.599 1268.46,728.368C1260.28,737.467 1250.82,745.951 1250.82,745.951C1254.31,741.501 1255.72,733.564 1256.2,726.018C1246.38,731.657 1233.84,741.039 1224.46,749.025C1231.98,727.813 1231.34,731.109 1234.53,718.585C1214.39,734.627 1192.22,746.84 1192.22,746.84C1195.15,740.864 1198.57,730.777 1201.68,720.579C1181.27,734.098 1159.09,748.064 1171.82,736.1C1180.46,727.985 1187.87,718.395 1193.65,709.799C1177.78,714.585 1163.31,717.941 1163.31,717.941C1176.53,712.876 1185.17,702.996 1190.69,695.171C1165.42,701.009 1126.76,704.025 1126.76,704.025C1157.73,694.788 1177.7,678.183 1194.31,661.39C1194.49,660.895 1194.75,660.401 1195.09,659.909C1189.68,660.437 1185.82,660.572 1185.82,660.572C1194.36,658.362 1199.61,653.978 1202.84,649.533C1193.5,651.054 1181.88,647.867 1167.94,648.296C1166.86,648.33 1192.37,636.005 1203.64,625.08C1193.24,626.687 1184.57,627.378 1184.57,627.378C1192.29,624.002 1199.59,619.541 1205.41,615.538C1186.66,615.998 1164.4,605.56 1164.4,605.56C1194.23,600.024 1210.2,592.979 1219.42,586.452C1209.13,586.856 1199.34,586.457 1199.34,586.457C1212.68,584.347 1228.13,568.121 1233.85,561.626C1221.35,566.742 1209.48,569.624 1209.48,569.624C1218.25,563.387 1226.59,552.921 1232.8,543.913C1221.71,552.516 1203.93,557.21 1203.93,557.21C1204.52,556.773 1260.56,525.741 1289.54,461.825L1289.55,461.299L1289.66,461.554L1289.79,461.267L1289.8,461.859Z" style="fill:rgb(0,8,45);"/>
                <clipPath id="_clip1">
                    <path d="M1289.8,461.859C1318.78,525.773 1374.82,556.805 1375.41,557.242C1375.41,557.242 1357.64,552.548 1346.55,543.945C1352.75,552.953 1361.09,563.419 1369.86,569.656C1369.86,569.656 1358,566.774 1345.49,561.658C1351.21,568.153 1366.66,584.379 1380,586.489C1380,586.489 1370.22,586.888 1359.92,586.484C1369.14,593.011 1385.12,600.056 1414.94,605.592C1414.94,605.592 1392.68,616.031 1373.93,615.57C1379.76,619.573 1387.06,624.034 1394.77,627.41C1394.77,627.41 1386.1,626.719 1375.7,625.112C1386.97,636.037 1412.49,648.362 1411.4,648.329C1397.46,647.899 1385.85,651.086 1376.5,649.566C1379.73,654.01 1384.99,658.394 1393.53,660.604C1393.53,660.604 1389.66,660.469 1384.25,659.941C1384.59,660.434 1384.86,660.928 1385.03,661.422C1401.65,678.215 1421.61,694.82 1452.59,704.057C1452.59,704.057 1413.92,701.041 1388.65,695.203C1394.17,703.029 1402.81,712.908 1416.03,717.973C1416.03,717.973 1401.57,714.617 1385.69,709.831C1391.48,718.427 1398.89,728.018 1407.52,736.132C1420.25,748.096 1398.07,734.131 1377.67,720.611C1380.77,730.809 1384.19,740.896 1387.12,746.873C1387.12,746.873 1364.96,734.659 1344.81,718.618C1348,731.141 1347.37,727.845 1354.88,749.058C1345.51,741.071 1332.96,731.69 1323.14,726.05C1323.62,733.596 1325.03,741.533 1328.52,745.983C1328.52,745.983 1319.06,737.499 1310.89,728.4C1310.36,744.631 1305.05,896.463 1318.35,922.938L1282.91,921.418L1256.04,921.643C1273.15,850.357 1268.98,744.599 1268.46,728.368C1260.28,737.467 1250.82,745.951 1250.82,745.951C1254.31,741.501 1255.72,733.564 1256.2,726.018C1246.38,731.657 1233.84,741.039 1224.46,749.025C1231.98,727.813 1231.34,731.109 1234.53,718.585C1214.39,734.627 1192.22,746.84 1192.22,746.84C1195.15,740.864 1198.57,730.777 1201.68,720.579C1181.27,734.098 1159.09,748.064 1171.82,736.1C1180.46,727.985 1187.87,718.395 1193.65,709.799C1177.78,714.585 1163.31,717.941 1163.31,717.941C1176.53,712.876 1185.17,702.996 1190.69,695.171C1165.42,701.009 1126.76,704.025 1126.76,704.025C1157.73,694.788 1177.7,678.183 1194.31,661.39C1194.49,660.895 1194.75,660.401 1195.09,659.909C1189.68,660.437 1185.82,660.572 1185.82,660.572C1194.36,658.362 1199.61,653.978 1202.84,649.533C1193.5,651.054 1181.88,647.867 1167.94,648.296C1166.86,648.33 1192.37,636.005 1203.64,625.08C1193.24,626.687 1184.57,627.378 1184.57,627.378C1192.29,624.002 1199.59,619.541 1205.41,615.538C1186.66,615.998 1164.4,605.56 1164.4,605.56C1194.23,600.024 1210.2,592.979 1219.42,586.452C1209.13,586.856 1199.34,586.457 1199.34,586.457C1212.68,584.347 1228.13,568.121 1233.85,561.626C1221.35,566.742 1209.48,569.624 1209.48,569.624C1218.25,563.387 1226.59,552.921 1232.8,543.913C1221.71,552.516 1203.93,557.21 1203.93,557.21C1204.52,556.773 1260.56,525.741 1289.54,461.825L1289.55,461.299L1289.66,461.554L1289.79,461.267L1289.8,461.859Z"/>
                </clipPath>
                <g clip-path="url(#_clip1)">
                    <g transform="matrix(0.901484,0,0,0.901484,1935.16,153.211)">
                        <path d="M1289.8,461.859C1318.78,525.773 1374.82,556.805 1375.41,557.242C1375.41,557.242 1357.64,552.548 1346.55,543.945C1352.75,552.953 1361.09,563.419 1369.86,569.656C1369.86,569.656 1358,566.774 1345.49,561.658C1351.21,568.153 1366.66,584.379 1380,586.489C1380,586.489 1370.22,586.888 1359.92,586.484C1369.14,593.011 1385.12,600.056 1414.94,605.592C1414.94,605.592 1392.68,616.031 1373.93,615.57C1379.76,619.573 1387.06,624.034 1394.77,627.41C1394.77,627.41 1386.1,626.719 1375.7,625.112C1386.97,636.037 1412.49,648.362 1411.4,648.329C1397.46,647.899 1385.85,651.086 1376.5,649.566C1379.73,654.01 1384.99,658.394 1393.53,660.604C1393.53,660.604 1389.66,660.469 1384.25,659.941C1384.59,660.434 1384.86,660.928 1385.03,661.422C1401.65,678.215 1421.61,694.82 1452.59,704.057C1452.59,704.057 1413.92,701.041 1388.65,695.203C1394.17,703.029 1402.81,712.908 1416.03,717.973C1416.03,717.973 1401.57,714.617 1385.69,709.831C1391.48,718.427 1398.89,728.018 1407.52,736.132C1420.25,748.096 1398.07,734.131 1377.67,720.611C1380.77,730.809 1384.19,740.896 1387.12,746.873C1387.12,746.873 1364.96,734.659 1344.81,718.618C1348,731.141 1347.37,727.845 1354.88,749.058C1345.51,741.071 1332.96,731.69 1323.14,726.05C1323.62,733.596 1325.03,741.533 1328.52,745.983C1328.52,745.983 1319.06,737.499 1310.89,728.4C1310.36,744.631 1305.05,896.463 1318.35,922.938L1282.91,921.418L1256.04,921.643C1273.15,850.357 1268.98,744.599 1268.46,728.368C1260.28,737.467 1250.82,745.951 1250.82,745.951C1254.31,741.501 1255.72,733.564 1256.2,726.018C1246.38,731.657 1233.84,741.039 1224.46,749.025C1231.98,727.813 1231.34,731.109 1234.53,718.585C1214.39,734.627 1192.22,746.84 1192.22,746.84C1195.15,740.864 1198.57,730.777 1201.68,720.579C1181.27,734.098 1159.09,748.064 1171.82,736.1C1180.46,727.985 1187.87,718.395 1193.65,709.799C1177.78,714.585 1163.31,717.941 1163.31,717.941C1176.53,712.876 1185.17,702.996 1190.69,695.171C1165.42,701.009 1126.76,704.025 1126.76,704.025C1157.73,694.788 1177.7,678.183 1194.31,661.39C1194.49,660.895 1194.75,660.401 1195.09,659.909C1189.68,660.437 1185.82,660.572 1185.82,660.572C1194.36,658.362 1199.61,653.978 1202.84,649.533C1193.5,651.054 1181.88,647.867 1167.94,648.296C1166.86,648.33 1192.37,636.005 1203.64,625.08C1193.24,626.687 1184.57,627.378 1184.57,627.378C1192.29,624.002 1199.59,619.541 1205.41,615.538C1186.66,615.998 1164.4,605.56 1164.4,605.56C1194.23,600.024 1210.2,592.979 1219.42,586.452C1209.13,586.856 1199.34,586.457 1199.34,586.457C1212.68,584.347 1228.13,568.121 1233.85,561.626C1221.35,566.742 1209.48,569.624 1209.48,569.624C1218.25,563.387 1226.59,552.921 1232.8,543.913C1221.71,552.516 1203.93,557.21 1203.93,557.21C1204.52,556.773 1260.56,525.741 1289.54,461.825L1289.55,461.299L1289.66,461.554L1289.79,461.267L1289.8,461.859Z" style="fill:rgb(0,8,45);"/>
                    </g>
                </g>
            </g>
        </g>
    </g>
</svg>
