<?xml version="1.0" encoding="UTF-8" standalone="no"?>
<!DOCTYPE svg PUBLIC "-//W3C//DTD SVG 1.1//EN" "http://www.w3.org/Graphics/SVG/1.1/DTD/svg11.dtd">
<svg width="100%" height="100%" viewBox="0 0 2939 998" version="1.1" xmlns="http://www.w3.org/2000/svg" xmlns:xlink="http://www.w3.org/1999/xlink" xml:space="preserve" xmlns:serif="http://www.serif.com/" style="fill-rule:evenodd;clip-rule:evenodd;stroke-linejoin:round;stroke-miterlimit:2;">
    <g transform="matrix(1,0,0,1,109,-994)">
        <g transform="matrix(1,0,0,1,-25.5554,90.9146)">
            <g id="レイヤー3">
                <path d="M-82.514,1607.8C-63.394,1603.65 25.331,1415.45 35.466,1392.84C53.863,1351.8 79.95,1314.35 100.065,1274.12C167.322,1139.6 236.112,909.582 400.361,903.983C520.459,899.89 717.449,1107.59 767.001,1157.14C817.317,1207.46 862.056,1271.52 920.641,1312.53C1103.51,1440.54 1124.94,1232.22 1316.96,1289.83C1385.68,1310.44 1434.19,1368.18 1486.32,1413.79C1512.38,1436.59 1659.9,1509.06 1695.82,1515.05C1798.05,1532.09 2019.21,1329.59 2090.4,1258.4C2145.49,1203.31 2244.03,1080.1 2326.1,1069.85C2460.44,1053.05 2606.39,1269.83 2689.24,1352.68C2732.59,1396.03 2863.29,1556.1 2855.11,1621.55C2834.51,1786.36 2393.56,1797.37 2284.2,1803.13C2144.07,1810.5 2003.03,1803.33 1863.43,1818.84C1717.33,1835.07 1574.26,1866.18 1426.95,1876.45C1329.96,1883.22 1232.37,1878.09 1135.39,1885.18C1025.38,1893.23 914.195,1904.97 803.665,1899.15C684.161,1892.86 565.245,1885.14 445.755,1879.94C337.835,1875.25 124.038,1875.68 31.975,1817.09C12.582,1804.75 -4.407,1791.58 -13.419,1769.95C-38.059,1710.82 -38.008,1506.47 11.024,1457.44" style="fill:rgb(116,109,212);"/>
            </g>
        </g>
    </g>
</svg>
